<svg xmlns="http://www.w3.org/2000/svg" width="1200" height="630" viewBox="0 0 1200 630">
  <defs>
    <linearGradient id="bg" x1="0" y1="0" x2="1" y2="1">
      <stop offset="0%" stop-color="#0a1622" />
      <stop offset="100%" stop-color="#101f38" />
    </linearGradient>
    <linearGradient id="accent" x1="0" y1="0" x2="1" y2="0">
      <stop offset="0%" stop-color="#f5d163" />
      <stop offset="45%" stop-color="#d14fe4" />
      <stop offset="100%" stop-color="#25c2f0" />
    </linearGradient>
    <linearGradient id="lineGlow" x1="0" y1="0" x2="1" y2="0">
      <stop offset="0%" stop-color="#f5d163" stop-opacity="0.7" />
      <stop offset="35%" stop-color="#d14fe4" stop-opacity="0.7" />
      <stop offset="100%" stop-color="#25c2f0" stop-opacity="0.7" />
    </linearGradient>
    <filter id="softGlow" x="-20%" y="-20%" width="140%" height="140%">
      <feGaussianBlur stdDeviation="18" result="blur" />
      <feMerge>
        <feMergeNode in="blur" />
        <feMergeNode in="SourceGraphic" />
      </feMerge>
    </filter>
  </defs>
  <rect width="1200" height="630" fill="url(#bg)" />
  <g filter="url(#softGlow)">
    <circle cx="220" cy="160" r="110" fill="#f5d163" opacity="0.22" />
    <circle cx="960" cy="170" r="140" fill="#25c2f0" opacity="0.18" />
    <circle cx="680" cy="470" r="90" fill="#d14fe4" opacity="0.2" />
  </g>
  <g transform="translate(120 120)">
    <path d="M0 280 Q180 160 320 210 T620 170 Q760 130 840 230 T1060 200" fill="none" stroke="url(#lineGlow)" stroke-width="22" stroke-linecap="round" />
    <circle cx="0" cy="280" r="14" fill="#f5d163" />
    <circle cx="320" cy="210" r="18" fill="#ffffff" />
    <circle cx="620" cy="170" r="14" fill="#25c2f0" />
    <circle cx="840" cy="230" r="18" fill="#ffffff" />
    <circle cx="1060" cy="200" r="16" fill="#d14fe4" />
    <g>
      <rect x="40" y="-20" width="335" height="170" rx="34" fill="#0f1d34" opacity="0.92" />
      <rect x="350" y="85" width="420" height="210" rx="34" fill="#11253d" opacity="0.92" />
      <rect x="800" y="25" width="290" height="220" rx="34" fill="#132a46" opacity="0.92" />
      <rect x="40" y="260" width="475" height="240" rx="34" fill="#0f1d34" opacity="0.92" />
      <path d="M36 316 L496 316" stroke="#f5d163" stroke-width="3" opacity="0.35" stroke-linecap="round" />
      <path d="M350 201 L770 201" stroke="#25c2f0" stroke-width="3" opacity="0.35" stroke-linecap="round" />
      <path d="M800 125 L1088 125" stroke="#d14fe4" stroke-width="3" opacity="0.35" stroke-linecap="round" />
    </g>
  </g>
  <text x="80" y="130" font-family="Inter, sans-serif" font-size="58" fill="#ffffff" font-weight="700">Kian Price</text>
  <text x="80" y="190" font-family="Inter, sans-serif" font-size="26" fill="#9fb2cf">Bespoke, launch-ready websites for premium brands</text>
  <text x="80" y="240" font-family="Inter, sans-serif" font-size="44" fill="#f5f7fb" font-weight="800">Timeline-led digital stories</text>
  <text x="80" y="295" font-family="Inter, sans-serif" font-size="21" fill="#93a7c0" letter-spacing="0.06em">Strategic design, polished motion, conversion-first build.</text>
  <g>
    <rect x="80" y="340" width="360" height="90" rx="28" fill="#f5d163" />
    <text x="260" y="400" font-family="Inter, sans-serif" font-size="24" fill="#0f172a" font-weight="700" text-anchor="middle">thekianprice.co.uk</text>
  </g>
  <text x="80" y="520" font-family="Inter, sans-serif" font-size="18" fill="#7b8ca8">Launch-ready portfolio sites designed to win trust and make leads.</text>
</svg>
